<?xml version="1.0" encoding="utf-8"?>
<!-- Generator: Adobe Illustrator 16.0.0, SVG Export Plug-In . SVG Version: 6.00 Build 0)  -->
<!DOCTYPE svg PUBLIC "-//W3C//DTD SVG 1.1//EN" "http://www.w3.org/Graphics/SVG/1.1/DTD/svg11.dtd">
<svg version="1.1" id="Layer_1" xmlns="http://www.w3.org/2000/svg" xmlns:xlink="http://www.w3.org/1999/xlink" x="0px" y="0px"
	 width="23.375px" height="22.75px" viewBox="0 0 23.375 22.75" enable-background="new 0 0 23.375 22.75" xml:space="preserve">
<path id="Path_177" opacity="0.8" fill="#FFFFFF" stroke="#FFFFFF" stroke-width="0.5" enable-background="new    " d="
	M21.717,14.413c0.006,0.042,0.006,0.084,0,0.127c-0.16,0.786-0.019,1.603,0.397,2.287c0.871,1.791-0.553,3.535-2.579,3.307
	c-0.324-0.037-0.65,0.031-0.931,0.195c-1.835,1.265-4.192,1.495-6.237,0.606c-0.363-0.158-0.783-0.142-1.133,0.044
	c-2.119,1.055-4.644,0.866-6.583-0.489c-0.276-0.169-0.599-0.246-0.922-0.223c-1.374,0.253-2.693-0.653-2.947-2.027
	c0-0.002-0.001-0.006-0.002-0.01c-0.068-0.707,0.142-1.414,0.584-1.972c0.144-0.223,0.213-0.485,0.195-0.75
	c-0.423-2.407,0.611-4.837,2.64-6.201c0.303-0.186,0.5-0.502,0.536-0.856c0.222-2.339,1.735-4.357,3.919-5.226
	C8.869,3.11,9.04,2.924,9.139,2.699c0.399-1.3,1.777-2.031,3.077-1.631c0.741,0.227,1.33,0.79,1.594,1.518
	c0.125,0.259,0.33,0.471,0.586,0.603C16.625,4,18.197,6.011,18.45,8.369c0.039,0.396,0.262,0.751,0.601,0.962
	C20.721,10.483,21.718,12.383,21.717,14.413z M15.268,10.971c-0.332-0.112-0.545-0.2-0.768-0.255
	c-0.47-0.115-1.117-0.062-1.368-0.355c-0.282-0.332-0.208-0.968-0.291-1.471c-0.007-0.042-0.02-0.083-0.026-0.125
	c-0.063-0.378,0.054-0.645,0.47-0.677c0.596-0.045,1.191-0.074,1.787-0.104c0.38-0.04,0.722,0.235,0.763,0.615
	c0.386,1.214,0.334,2.523-0.142,3.704c-0.281,0.644-0.106,0.944,0.49,1.138c1.462-1.73,1.888-4.11,1.118-6.241
	c-0.542-1.456-1.693-2.602-3.153-3.137c-0.468,2.193-1.166,3.181-2.459,3.203C9.713,7.298,9.109,5.858,8.805,4.23
	C7.149,4.718,5.529,6.909,5.652,8.464C5.777,8.432,5.9,8.408,6.019,8.368C7.187,7.945,8.442,7.81,9.673,7.976
	c0.677,0.097,0.806,0.226,0.736,0.911c-0.034,0.34-0.09,0.679-0.099,1.02c-0.009,0.426-0.201,0.568-0.622,0.631
	c-1.921,0.286-1.965,0.116-1.202,2.01c0.09,0.222,0.072,0.673-0.065,0.767c-0.573,0.362-1.172,0.687-1.788,0.968
	c-0.036,0.018-0.172-0.119-0.229-0.204c-0.344-0.514-0.707-1.019-1.007-1.557c-0.239-0.383-0.133-0.886,0.241-1.139
	c0.95-0.875,2.146-1.435,3.425-1.604c0.44-0.051,0.563-0.323,0.48-0.659C9.452,8.919,9.267,8.776,9.049,8.739
	c-2.086-0.133-4.114,0.716-5.483,2.294c-1.016,1.145-1.453,2.691-1.186,4.199c1.547-0.565,3.104-0.932,4.097,0.721
	c0.972,1.616-0.055,2.769-1.262,3.755c1.455,1.296,4.437,1.441,5.628,0.365C9.83,19.311,9.024,18.308,8.5,17.154
	c-0.429-0.956-0.411-1.019,0.523-1.429c0.253-0.111,0.514-0.212,0.764-0.331c0.28-0.177,0.649-0.094,0.826,0.187
	c0.014,0.021,0.026,0.044,0.037,0.067c0.295,0.428,0.666,0.803,1.166,1.39c0.105-0.22,0.228-0.431,0.368-0.63
	c0.991-1.128,0.991-1.124,2.376-0.391c0.343,0.181,0.779,0.354,0.49,0.848c-0.399,0.688-0.369,1.735-1.482,1.85
	c-0.063-0.006-0.124-0.023-0.18-0.05c-1.153-0.284-2.18-0.94-2.924-1.868c-0.43-0.562-0.771-0.512-1.233-0.153
	c1.333,3.476,5.828,5.436,8.701,3.027c-1.467-1.394-1.894-2.709-1.24-3.798c0.673-1.111,1.879-1.314,3.986-0.665
	c0.501-1.785-0.739-4.588-2.051-4.964c-0.433,1.132-0.924,2.242-1.473,3.324c-0.655,1.155-0.794,1.12-1.847,0.349
	c-0.172-0.126-0.339-0.263-0.517-0.379c-0.331-0.216-0.36-0.451-0.188-0.816C14.853,12.177,15.033,11.592,15.268,10.971
	L15.268,10.971z M13.39,4.043c-0.133-0.491-0.313-0.967-0.542-1.422c-0.385-0.755-1.31-1.056-2.065-0.67
	c-0.301,0.153-0.544,0.402-0.689,0.707c-0.51,0.79-0.552,1.793-0.11,2.623c0.235,0.615,0.814,1.032,1.473,1.06
	c0.685,0.008,1.301-0.413,1.543-1.052C13.163,4.885,13.292,4.468,13.39,4.043L13.39,4.043z M4.338,15.639
	c-1.144-0.022-2.184,0.664-2.613,1.725c-0.326,0.705-0.018,1.54,0.686,1.865c0.07,0.033,0.141,0.06,0.215,0.079
	c1.168,0.319,2.409-0.156,3.063-1.177c0.369-0.491,0.429-1.148,0.151-1.697c-0.306-0.532-0.891-0.843-1.503-0.793L4.338,15.639z
	 M19.604,19.29c0.901,0.014,1.481-0.205,1.802-0.81c0.28-0.576,0.182-1.265-0.247-1.739c-0.522-0.724-1.351-1.165-2.243-1.194
	c-0.823-0.091-1.565,0.505-1.656,1.328c-0.032,0.308,0.029,0.617,0.179,0.889c0.382,0.872,1.216,1.46,2.166,1.528V19.29z
	 M6.942,13.239c0.884-0.344,0.908-0.576,0.192-1.88c-1.163,0.57-1.2,0.897-0.193,1.881L6.942,13.239z M14.24,16.813
	c-0.92-0.541-1.081-0.478-1.733,0.638l1.134,0.46L14.24,16.813z M15.159,9.857c0.074-0.938-0.021-1.123-0.631-1.121
	c-0.318,0-0.777-0.169-0.769,0.451c0.013,0.549,0.246,0.672,1.397,0.67H15.159z"/>
</svg>
