<?xml version="1.0" encoding="utf-8"?>
<!-- Generator: Adobe Illustrator 16.0.0, SVG Export Plug-In . SVG Version: 6.00 Build 0)  -->
<!DOCTYPE svg PUBLIC "-//W3C//DTD SVG 1.1//EN" "http://www.w3.org/Graphics/SVG/1.1/DTD/svg11.dtd">
<svg version="1.1" id="Layer_1" xmlns="http://www.w3.org/2000/svg" xmlns:xlink="http://www.w3.org/1999/xlink" x="0px" y="0px"
	 width="26.917px" height="24px" viewBox="0 0 26.917 24" enable-background="new 0 0 26.917 24" xml:space="preserve">
<g id="Group_35" transform="translate(16 8)">
	<path id="Path_39" fill="#4778BB" d="M2.256,1.024h-10c-0.276,0-0.5,0.224-0.5,0.5v8c0,1.188,0.836,2.212,2,2.449v2.551
		c0,0.828,0.672,1.5,1.5,1.5c0.829,0,1.5-0.672,1.5-1.5v-2.5h1v2.5c0,0.828,0.672,1.5,1.5,1.5c0.829,0,1.5-0.672,1.5-1.5v-2.551
		c1.164-0.237,2.001-1.262,2-2.449v-8C2.756,1.248,2.533,1.024,2.256,1.024z"/>
	<path id="Path_40" fill="#4778BB" d="M-0.127-5.312l0.843-1.967c0.101-0.258-0.026-0.548-0.283-0.648
		C0.186-8.022-0.092-7.911-0.204-7.672l-0.84,1.968c-1.103-0.361-2.291-0.361-3.394,0l-0.848-1.968
		C-5.379-7.931-5.667-8.064-5.926-7.97c-0.259,0.096-0.392,0.383-0.297,0.642c0.006,0.017,0.013,0.033,0.021,0.05l0.843,1.967
		c-1.775,0.96-2.883,2.816-2.884,4.836c0,0.275,0.224,0.5,0.5,0.5h10c0.276,0,0.5-0.225,0.5-0.5
		C2.755-2.495,1.649-4.352-0.127-5.312z M-4.744-1.976c-0.276,0-0.5-0.225-0.5-0.5c0-0.276,0.224-0.5,0.5-0.5s0.5,0.224,0.5,0.5
		C-4.244-2.2-4.467-1.976-4.744-1.976z M-0.744-1.976c-0.276,0-0.5-0.225-0.5-0.5c0-0.276,0.224-0.5,0.5-0.5s0.5,0.224,0.5,0.5
		C-0.244-2.2-0.467-1.976-0.744-1.976z"/>
	<path id="Path_41" fill="#4778BB" d="M5.255,1.024c-0.828,0-1.5,0.671-1.5,1.5v5c0,0.828,0.672,1.5,1.5,1.5s1.5-0.672,1.5-1.5v-5
		C6.755,1.695,6.083,1.024,5.255,1.024z"/>
	<path id="Path_42" fill="#4778BB" d="M-10.744,1.024c-0.828,0-1.5,0.671-1.5,1.5v5c0,0.828,0.672,1.5,1.5,1.5
		c0.829,0,1.5-0.672,1.5-1.5v-5C-9.244,1.695-9.915,1.024-10.744,1.024z"/>
</g>
</svg>
