<?xml version="1.0" encoding="utf-8"?>
<!-- Generator: Adobe Illustrator 16.0.0, SVG Export Plug-In . SVG Version: 6.00 Build 0)  -->
<!DOCTYPE svg PUBLIC "-//W3C//DTD SVG 1.1//EN" "http://www.w3.org/Graphics/SVG/1.1/DTD/svg11.dtd">
<svg version="1.1" id="Layer_1" xmlns="http://www.w3.org/2000/svg" xmlns:xlink="http://www.w3.org/1999/xlink" x="0px" y="0px"
	 width="26.917px" height="24px" viewBox="0 0 26.917 24" enable-background="new 0 0 26.917 24" xml:space="preserve">
<g id="Group_36" transform="translate(16 10)">
	<path id="Path_43" fill="#4778BB" d="M-5.475,11.699c-2.9-0.018-5.301-5.943-5.301-8.961c0-4.93,3.7-6.01,5.124-6.01
		c0.667,0.047,1.32,0.208,1.934,0.475c0.351,0.154,0.721,0.261,1.1,0.317c0.273-0.054,0.54-0.14,0.792-0.258
		c0.751-0.346,1.562-0.541,2.387-0.576h0.006C2.189-3.347,3.723-2.573,4.66-1.247l0.3,0.449L4.53-0.473
		C3.484,0.164,2.832,1.286,2.795,2.508C2.76,3.824,3.494,5.039,4.673,5.62C4.943,5.782,5.22,5.949,5.22,6.314
		c0,0.237-1.899,5.355-4.663,5.355c-0.547-0.011-1.085-0.142-1.575-0.382c-0.436-0.218-0.914-0.333-1.4-0.338
		c-0.384,0.04-0.759,0.142-1.109,0.3c-0.609,0.266-1.262,0.418-1.926,0.449H-5.475z"/>
	<path id="Path_44" fill="#4778BB" d="M0.861-7.808c0.071,2.594-1.783,4.393-3.637,4.28C-2.868-5.686-1.284-7.55,0.861-7.808z"/>
</g>
</svg>
