<?xml version="1.0" encoding="utf-8"?>
<!-- Generator: Adobe Illustrator 16.0.0, SVG Export Plug-In . SVG Version: 6.00 Build 0)  -->
<!DOCTYPE svg PUBLIC "-//W3C//DTD SVG 1.1//EN" "http://www.w3.org/Graphics/SVG/1.1/DTD/svg11.dtd">
<svg version="1.1" id="Layer_1" xmlns="http://www.w3.org/2000/svg" xmlns:xlink="http://www.w3.org/1999/xlink" x="0px" y="0px"
	 width="23.375px" height="22.75px" viewBox="0 0 23.375 22.75" enable-background="new 0 0 23.375 22.75" xml:space="preserve">
<g id="Group_44" transform="translate(-4439 178.667)" opacity="0.8">
	<path id="Path_55" fill="#FFFFFF" stroke="#FFFFFF" stroke-width="0.2" d="M4458.624-160.584h-15.685
		c-1.14,0-2.064-0.923-2.064-2.063v-9.08c0-1.14,0.924-2.064,2.064-2.064h15.685c1.14,0,2.063,0.924,2.063,2.064v9.08
		C4460.688-161.507,4459.764-160.584,4458.624-160.584z M4442.939-172.966c-0.684,0-1.238,0.554-1.238,1.238v9.08
		c0,0.684,0.554,1.238,1.238,1.238h15.685c0.684,0,1.238-0.555,1.238-1.238v-9.08c0-0.685-0.555-1.238-1.238-1.238H4442.939z"/>
	<path id="Path_56" fill="#FFFFFF" stroke="#FFFFFF" stroke-width="0.2" d="M4460.274-168.013h-18.986
		c-0.228,0-0.413-0.186-0.413-0.413v-2.477c0-0.229,0.185-0.413,0.413-0.413h18.986c0.229,0,0.413,0.184,0.413,0.413v2.477
		C4460.688-168.198,4460.504-168.013,4460.274-168.013z M4441.701-168.838h18.161v-1.651h-18.161V-168.838z"/>
	<path id="Path_57" fill="#FFFFFF" stroke="#FFFFFF" stroke-width="0.2" d="M4448.717-164.711h-4.953
		c-0.227,0-0.413-0.185-0.413-0.413s0.186-0.412,0.413-0.412h4.953c0.229,0,0.413,0.184,0.413,0.412
		S4448.946-164.711,4448.717-164.711z"/>
	<path id="Path_58" fill="#FFFFFF" stroke="#FFFFFF" stroke-width="0.2" d="M4448.717-163.061h-4.953
		c-0.227,0-0.413-0.185-0.413-0.412s0.186-0.413,0.413-0.413h4.953c0.229,0,0.413,0.186,0.413,0.413
		S4448.946-163.061,4448.717-163.061z"/>
	<path id="Path_59" fill="#FFFFFF" stroke="#FFFFFF" stroke-width="0.2" d="M4456.973-163.061h-0.825
		c-0.684,0-1.238-0.555-1.238-1.238v-0.825c0-0.684,0.555-1.238,1.238-1.238h0.825c0.685,0,1.238,0.554,1.238,1.238v0.825
		C4458.211-163.615,4457.657-163.061,4456.973-163.061z M4456.147-165.536c-0.228,0-0.413,0.184-0.413,0.412v0.825
		c0,0.229,0.186,0.413,0.413,0.413h0.825c0.229,0,0.413-0.185,0.413-0.413v-0.825c0-0.228-0.185-0.412-0.413-0.412H4456.147z"/>
</g>
</svg>
