<?xml version="1.0" encoding="utf-8"?>
<!-- Generator: Adobe Illustrator 16.0.0, SVG Export Plug-In . SVG Version: 6.00 Build 0)  -->
<!DOCTYPE svg PUBLIC "-//W3C//DTD SVG 1.1//EN" "http://www.w3.org/Graphics/SVG/1.1/DTD/svg11.dtd">
<svg version="1.1" id="Layer_1" xmlns="http://www.w3.org/2000/svg" xmlns:xlink="http://www.w3.org/1999/xlink" x="0px" y="0px"
	 width="23.375px" height="22.75px" viewBox="0 0 23.375 22.75" enable-background="new 0 0 23.375 22.75" xml:space="preserve">
<g id="Group_42" transform="translate(-4437 165.983)" opacity="0.8">
	<path id="Path_47" fill="#FFFFFF" stroke="#FFFFFF" stroke-width="0.2" d="M4458.657-146.416c1.157-2.032,0.687-4.601-1.116-6.09
		v-2.852h0.438c0.241,0,0.438-0.196,0.438-0.438v-1.312h0.437c0.241,0.003,0.439-0.19,0.442-0.432
		c0.002-0.147-0.07-0.286-0.193-0.369l-10.063-6.992c-0.15-0.105-0.351-0.105-0.5,0l-10.062,7c-0.201,0.134-0.254,0.405-0.12,0.606
		c0.082,0.123,0.221,0.196,0.369,0.194h0.438v1.3c0,0.242,0.197,0.438,0.438,0.438h0.437v7h-0.438c-0.242,0-0.438,0.196-0.438,0.438
		v1.395c-0.522,0.186-0.872,0.677-0.875,1.23v0.875c0,0.242,0.196,0.438,0.438,0.438h20.124c0.24,0,0.436-0.193,0.438-0.434v-0.879
		C4459.289-145.756,4459.049-146.18,4458.657-146.416z M4457.541-156.233h-3.5v-0.874h3.5V-156.233z M4456.666-155.358v2.279
		c-0.545-0.28-1.139-0.452-1.75-0.507v-1.771L4456.666-155.358z M4448.791-164.012l8.668,6.029h-17.334L4448.791-164.012z
		 M4443.979-148.358h-0.438v-7h0.438c0.241,0,0.437-0.196,0.437-0.437c0-0.001,0-0.003,0-0.004v-1.308h1.75v1.308
		c0,0.242,0.197,0.438,0.438,0.438h0.437v7h-0.438c-0.242,0-0.438,0.196-0.438,0.438v1.313h-1.75v-1.309
		c0.001-0.242-0.194-0.438-0.436-0.438H4443.979z M4447.041-147.483h2.813c0.086,0.302,0.202,0.595,0.346,0.875h-3.158V-147.483z
		 M4447.916-148.358v-7h1.75v7H4447.916z M4450.103-156.233h-3.062v-0.874h3.5v0.875L4450.103-156.233z M4450.541-155.358h0.437
		c0.241,0,0.438-0.196,0.438-0.438v-1.311h1.75v1.308c-0.001,0.242,0.194,0.438,0.436,0.438l0,0h0.439v1.771
		c-1.408,0.13-2.689,0.872-3.5,2.031V-155.358z M4440.041-157.108h3.5v0.875h-3.5V-157.108z M4442.666-155.358v7h-1.75v-7H4442.666z
		 M4440.041-147.483h3.5v0.875h-3.5V-147.483z M4439.166-144.858v-0.441c0-0.242,0.197-0.438,0.438-0.438h11.164
		c0.276,0.333,0.595,0.627,0.948,0.875L4439.166-144.858z M4458.416-144.858h-1.181c0.341-0.238,0.649-0.52,0.919-0.836
		c0.159,0.068,0.262,0.226,0.262,0.399V-144.858z M4454.479-144.858c-2.175,0-3.937-1.764-3.937-3.938
		c0-2.175,1.762-3.937,3.937-3.937c2.173,0,3.935,1.759,3.937,3.933c0.003,2.174-1.758,3.938-3.933,3.941
		C4454.482-144.858,4454.48-144.858,4454.479-144.858L4454.479-144.858z"/>
	<path id="Path_48" fill="#FFFFFF" stroke="#FFFFFF" stroke-width="0.2" d="M4454.041-159.16c0.061-0.18-0.004-0.378-0.158-0.49
		l-4.812-3.5l-0.538,0.709l3.723,2.708h-7.84v0.875h9.188C4453.801-158.848,4453.98-158.972,4454.041-159.16z"/>
	<path id="Path_49" fill="#FFFFFF" stroke="#FFFFFF" stroke-width="0.2" d="M4455.354-150.983h-0.438v-0.875h-0.875v0.875h-0.438
		c-0.483,0-0.875,0.393-0.875,0.875v0.875c0,0.483,0.392,0.875,0.875,0.875h1.75v0.875h-1.75v-0.438h-0.874v0.439
		c0,0.482,0.392,0.875,0.875,0.875h0.438v0.875h0.875v-0.875h0.438c0.483,0,0.875-0.393,0.875-0.875v-0.877
		c0-0.482-0.392-0.875-0.875-0.875h-1.75v-0.875h1.75v0.438h0.875v-0.438C4456.229-150.59,4455.838-150.983,4455.354-150.983
		L4455.354-150.983z"/>
</g>
</svg>
