<?xml version="1.0" encoding="utf-8"?>
<!-- Generator: Adobe Illustrator 16.0.0, SVG Export Plug-In . SVG Version: 6.00 Build 0)  -->
<!DOCTYPE svg PUBLIC "-//W3C//DTD SVG 1.1//EN" "http://www.w3.org/Graphics/SVG/1.1/DTD/svg11.dtd">
<svg version="1.1" id="Layer_1" xmlns="http://www.w3.org/2000/svg" xmlns:xlink="http://www.w3.org/1999/xlink" x="0px" y="0px"
	 width="23.375px" height="22.75px" viewBox="0 0 23.375 22.75" enable-background="new 0 0 23.375 22.75" xml:space="preserve">
<g id="Group_191" transform="translate(-4458.333 357)" opacity="0.8">
	<path id="Path_130" fill="#FFFFFF" stroke="#FFFFFF" stroke-width="0.3" d="M4463.57-353.042h4.147v0.83h-4.147V-353.042z"/>
	<path id="Path_131" fill="#FFFFFF" stroke="#FFFFFF" stroke-width="0.3" d="M4463.57-351.382h0.83v0.829h-0.83V-351.382z"/>
	<path id="Path_132" fill="#FFFFFF" stroke="#FFFFFF" stroke-width="0.3" d="M4465.229-351.382h0.831v0.829h-0.831V-351.382z"/>
	<path id="Path_133" fill="#FFFFFF" stroke="#FFFFFF" stroke-width="0.3" d="M4461.912-344.33h-0.83v-9.955
		c0-0.688,0.558-1.245,1.245-1.245c0.001,0,0.001,0,0.002,0h10.782c0.109,0,0.215,0.043,0.293,0.121l3.318,3.319
		c0.078,0.078,0.121,0.183,0.121,0.293v4.147h-0.826v-3.976l-3.078-3.075h-10.61c-0.229,0-0.415,0.186-0.415,0.416L4461.912-344.33z
		"/>
	<path id="Path_134" fill="#FFFFFF" stroke="#FFFFFF" stroke-width="0.3" d="M4463.985-335.621h-1.657
		c-0.687,0-1.245-0.557-1.245-1.244l0,0v-3.318h0.83v3.316c0,0.229,0.186,0.414,0.415,0.414h1.659L4463.985-335.621z"/>
	<path id="Path_135" fill="#FFFFFF" stroke="#FFFFFF" stroke-width="0.3" d="M4474.769-351.381h-0.828
		c-0.688,0-1.245-0.557-1.245-1.245l0,0v-2.488h0.829v2.488c0,0.229,0.186,0.415,0.416,0.415h0.828V-351.381z"/>
	<path id="Path_136" fill="#FFFFFF" stroke="#FFFFFF" stroke-width="0.3" d="M4478.503-335.621h-5.808
		c-0.458,0-0.83-0.371-0.83-0.828v-1.246c0-0.229,0.186-0.414,0.415-0.414h6.638c0.229,0,0.415,0.186,0.415,0.414v1.246
		C4479.333-335.992,4478.961-335.621,4478.503-335.621L4478.503-335.621z M4472.695-337.279v0.83h5.808v-0.83H4472.695z"/>
	<path id="Path_137" fill="#FFFFFF" stroke="#FFFFFF" stroke-width="0.3" d="M4478.916-337.279h-6.636
		c-0.229,0-0.415-0.186-0.416-0.414l0,0v-1.246c0-0.457,0.372-0.828,0.83-0.828h5.807c0.459,0,0.83,0.371,0.83,0.828v1.246
		C4479.33-337.465,4479.145-337.279,4478.916-337.279z M4472.695-338.107h5.808v-0.832h-5.808V-338.107z"/>
	<path id="Path_138" fill="#FFFFFF" stroke="#FFFFFF" stroke-width="0.3" d="M4478.503-338.939h-5.808
		c-0.458,0-0.83-0.371-0.83-0.828v-1.244c0-0.23,0.186-0.416,0.415-0.416h6.638c0.229,0,0.415,0.186,0.415,0.416v1.244
		C4479.333-339.311,4478.961-338.939,4478.503-338.939L4478.503-338.939z M4472.695-340.598v0.83h5.808v-0.83H4472.695z"/>
	<path id="Path_139" fill="#FFFFFF" stroke="#FFFFFF" stroke-width="0.3" d="M4471.865-335.621h-5.806
		c-0.458,0-0.831-0.371-0.831-0.828v-1.246c0-0.229,0.186-0.414,0.415-0.414h6.637c0.23,0,0.416,0.186,0.416,0.414v1.246
		C4472.696-335.992,4472.324-335.621,4471.865-335.621L4471.865-335.621z M4466.059-337.279v0.83h5.806v-0.83H4466.059z"/>
	<path id="Path_140" fill="#FFFFFF" stroke="#FFFFFF" stroke-width="0.3" d="M4472.28-337.279h-6.637
		c-0.23,0-0.415-0.186-0.415-0.414v-1.246c0-0.457,0.371-0.828,0.829-0.828h5.807c0.458,0,0.83,0.371,0.83,0.828v1.246
		C4472.694-337.465,4472.509-337.279,4472.28-337.279z M4466.059-338.107h5.806v-0.832h-5.806V-338.107z"/>
	<path id="Path_141" fill="#FFFFFF" stroke="#FFFFFF" stroke-width="0.3" d="M4471.865-338.939h-5.806
		c-0.458,0-0.831-0.371-0.831-0.828v-1.244c0-0.23,0.186-0.416,0.415-0.416h6.637c0.23,0,0.416,0.186,0.416,0.416v1.244
		C4472.696-339.311,4472.324-338.939,4471.865-338.939L4471.865-338.939z M4466.059-340.598v0.83h5.806v-0.83H4466.059z"/>
	<path id="Path_142" fill="#FFFFFF" stroke="#FFFFFF" stroke-width="0.3" d="M4478.503-340.598h-5.808
		c-0.458,0-0.83-0.373-0.83-0.83v-1.246c0-0.228,0.186-0.414,0.415-0.414h6.638c0.229,0,0.415,0.186,0.415,0.414v1.246
		C4479.333-340.971,4478.961-340.598,4478.503-340.598L4478.503-340.598z M4472.695-342.258v0.83h5.808v-0.83H4472.695z"/>
	<path id="Path_143" fill="#FFFFFF" stroke="#FFFFFF" stroke-width="0.3" d="M4478.916-342.258h-6.636
		c-0.229,0.002-0.415-0.184-0.416-0.414l0,0v-1.245c0-0.458,0.372-0.829,0.83-0.829h5.807c0.459,0,0.83,0.371,0.83,0.829v1.245
		C4479.33-342.443,4479.145-342.258,4478.916-342.258z M4472.695-343.086h5.808v-0.83h-5.808V-343.086z"/>
	<path id="Path_144" fill="#FFFFFF" stroke="#FFFFFF" stroke-width="0.3" d="M4473.524-346.822h-0.829v-2.488h-2.904v-0.83h3.318
		c0.229,0,0.414,0.185,0.415,0.414v0.001V-346.822z"/>
	<path id="Path_145" fill="#FFFFFF" stroke="#FFFFFF" stroke-width="0.3" d="M4461.788-341.549l-0.586-0.588l4.562-4.562
		c0.078-0.078,0.184-0.121,0.294-0.121h3.558l3.194-3.194l0.587,0.587l-3.318,3.317c-0.078,0.078-0.184,0.121-0.293,0.122h-3.559
		L4461.788-341.549z"/>
</g>
</svg>
