<?xml version="1.0" encoding="utf-8"?>
<!-- Generator: Adobe Illustrator 16.0.0, SVG Export Plug-In . SVG Version: 6.00 Build 0)  -->
<!DOCTYPE svg PUBLIC "-//W3C//DTD SVG 1.1//EN" "http://www.w3.org/Graphics/SVG/1.1/DTD/svg11.dtd">
<svg version="1.1" id="Layer_1" xmlns="http://www.w3.org/2000/svg" xmlns:xlink="http://www.w3.org/1999/xlink" x="0px" y="0px"
	 width="23.375px" height="19.608px" viewBox="0 0 23.375 19.608" enable-background="new 0 0 23.375 19.608" xml:space="preserve">
<path id="Path_46" fill="#FFFFFF" d="M22.174,11.75c0.008,2.283-0.738,4.506-2.119,6.324c-0.273,0.361-0.789,0.434-1.15,0.16
	s-0.432-0.789-0.159-1.15c2.947-3.905,2.171-9.46-1.735-12.408c-3.905-2.947-9.461-2.17-12.407,1.735
	c-2.384,3.158-2.384,7.514,0,10.672c0.273,0.361,0.202,0.876-0.159,1.149c-0.361,0.272-0.875,0.202-1.148-0.159
	C-0.2,13.445,0.72,6.862,5.348,3.368c4.629-3.494,11.213-2.575,14.707,2.053C21.431,7.244,22.175,9.466,22.174,11.75z M16.875,6.81
	c0.32,0.32,0.32,0.839,0,1.16v0L14.2,10.644c0.755,1.395,0.235,3.137-1.16,3.891c-1.395,0.754-3.137,0.234-3.891-1.16
	c-0.755-1.395-0.235-3.137,1.16-3.891c0.852-0.461,1.879-0.461,2.73,0l2.675-2.674C16.035,6.49,16.554,6.49,16.875,6.81L16.875,6.81
	z M12.905,12.01c0-0.678-0.55-1.229-1.229-1.229c-0.678,0-1.229,0.551-1.229,1.229c0,0.68,0.551,1.229,1.229,1.229
	C12.355,13.238,12.904,12.689,12.905,12.01z"/>
</svg>
