<?xml version="1.0" encoding="utf-8"?>
<!-- Generator: Adobe Illustrator 24.1.2, SVG Export Plug-In . SVG Version: 6.00 Build 0)  -->
<svg version="1.1" id="Layer_1" xmlns="http://www.w3.org/2000/svg" xmlns:xlink="http://www.w3.org/1999/xlink" x="0px" y="0px"
	 viewBox="0 0 35.5 34" style="enable-background:new 0 0 35.5 34;" xml:space="preserve">
<style type="text/css">
	.st0{fill:#FFFFFF;}
</style>
<path id="Path_179" class="st0" d="M34.4,22.1c0,0.1,0,0.1,0,0.2c-0.3,1.3,0,2.6,0.7,3.8c1.4,2.9-0.9,5.8-4.2,5.4
	c-0.5-0.1-1.1,0.1-1.5,0.3c-3,2.1-6.9,2.5-10.2,1c-0.6-0.3-1.3-0.2-1.9,0.1c-3.5,1.7-7.6,1.4-10.8-0.8c-0.5-0.3-1-0.4-1.5-0.4
	c-2.5,0.2-4.4-1.1-4.8-3.3c-0.1-1.2,0.2-2.3,1-3.2c0.2-0.4,0.3-0.8,0.3-1.2c-0.7-4,1-7.9,4.3-10.2c0.5-0.3,0.8-0.8,0.9-1.4
	c0.4-3.8,2.8-7.2,6.4-8.6c0.4-0.2,0.6-0.5,0.8-0.9c0.6-1.7,2.1-2.8,3.8-2.9c1.8,0,3,1.1,3.8,2.7c0.2,0.4,0.5,0.8,1,1
	C26,5,28.6,8.3,29,12.2c0.1,0.7,0.4,1.2,1,1.6C32.8,15.6,34.4,18.7,34.4,22.1z M23.8,16.4c-0.5-0.2-0.9-0.3-1.3-0.4
	c-0.8-0.2-1.8-0.1-2.2-0.6c-0.5-0.5-0.3-1.6-0.5-2.4c0-0.1,0-0.1,0-0.2c-0.1-0.6,0.1-1.1,0.8-1.1c1-0.1,2-0.1,2.9-0.2
	c0.6-0.1,1.2,0.4,1.3,1c0.6,2,0.5,4.1-0.2,6.1c-0.5,1.1-0.2,1.5,0.8,1.9c2.3-2.3,3.1-6.9,1.8-10.2C26.3,7.8,24.4,6,22,5.1
	c-0.8,3.6-1.9,5.2-4,5.3c-3.2,0.1-4.2-2.3-4.7-5c-2.7,0.8-5.4,4.4-5.2,7c0.2-0.1,0.4-0.1,0.6-0.2c1.9-0.7,4-0.9,6-0.6
	c1.1,0.2,1.3,0.4,1.2,1.5c-0.1,0.6-0.2,1.1-0.2,1.7c0,0.7-0.3,0.9-1,1c-3.2,0.5-3.2,0.2-2,3.3c0.1,0.4,0.1,1.1-0.1,1.3
	c-0.9,0.6-1.9,1.1-2.9,1.6c-0.1,0-0.3-0.2-0.4-0.3c-0.6-0.8-1.2-1.7-1.7-2.6c-0.4-0.6-0.2-1.5,0.4-1.9c1.6-1.4,3.5-2.4,5.6-2.6
	c0.7-0.1,0.9-0.5,0.8-1.1c-0.1-0.3-0.5-0.6-0.8-0.6c-3.4-0.2-6.8,1.2-9,3.8c-1.7,1.9-2.4,4.4-1.9,6.9c2.5-0.9,5.1-1.5,6.7,1.2
	c1.6,2.7-0.1,4.5-2.1,6.2c2.4,2.1,7.3,2.4,9.2,0.6c-1.7-1.2-3-2.9-3.8-4.8C12,25,12,24.9,13.5,24.2c0.4-0.2,0.8-0.3,1.3-0.5
	c0.5-0.3,1.1-0.2,1.4,0.3c0,0,0,0.1,0.1,0.1c0.5,0.7,1.1,1.3,1.9,2.3c0.2-0.4,0.4-0.7,0.6-1c1.6-1.9,1.6-1.8,3.9-0.6
	c0.6,0.3,1.3,0.6,0.8,1.4c-0.7,1.1-0.6,2.8-2.4,3c-0.1,0-0.2,0-0.3-0.1c-1.9-0.5-3.6-1.5-4.8-3.1c-0.7-0.9-1.3-0.8-2-0.3
	c2.2,5.7,9.6,8.9,14.3,5c-2.4-2.3-3.1-4.4-2-6.2c1.1-1.8,3.1-2.2,6.5-1.1c0.8-2.9-1.2-7.5-3.4-8.1c-0.7,1.9-1.5,3.7-2.4,5.5
	c-1.1,1.9-1.3,1.8-3,0.6c-0.3-0.2-0.6-0.4-0.8-0.6c-0.5-0.4-0.6-0.7-0.3-1.3C23.1,18.4,23.4,17.4,23.8,16.4L23.8,16.4z M20.7,5.1
	c-0.2-0.8-0.5-1.6-0.9-2.3c-0.6-1.2-2.2-1.7-3.4-1.1c-0.5,0.3-0.9,0.7-1.1,1.2c-0.8,1.3-0.9,2.9-0.2,4.3c0.4,1,1.3,1.7,2.4,1.7
	c1.1,0,2.1-0.7,2.5-1.7C20.3,6.4,20.6,5.8,20.7,5.1z M5.9,24.1c-1.9,0-3.6,1.1-4.3,2.8c-0.5,1.2,0,2.5,1.1,3.1
	c0.1,0.1,0.2,0.1,0.4,0.1c1.9,0.5,4-0.3,5-1.9c0.6-0.8,0.7-1.9,0.2-2.8C7.8,24.5,6.9,24,5.9,24.1L5.9,24.1z M30.9,30.1
	c1.5,0,2.4-0.3,3-1.3c0.5-0.9,0.3-2.1-0.4-2.9c-0.9-1.2-2.2-1.9-3.7-2c-1.4-0.1-2.6,0.8-2.7,2.2c-0.1,0.5,0,1,0.3,1.5
	C28,29,29.4,30,30.9,30.1L30.9,30.1z M10.1,20.2c1.5-0.6,1.5-0.9,0.3-3.1C8.5,18,8.5,18.5,10.1,20.2z M22.1,26
	c-1.5-0.9-1.8-0.8-2.8,1l1.9,0.8L22.1,26z M23.6,14.6c0.1-1.5,0-1.8-1-1.8c-0.5,0-1.3-0.3-1.3,0.7C21.3,14.4,21.7,14.6,23.6,14.6z"
	/>
</svg>
