<?xml version="1.0" encoding="utf-8"?>
<!-- Generator: Adobe Illustrator 24.1.2, SVG Export Plug-In . SVG Version: 6.00 Build 0)  -->
<svg version="1.1" id="Layer_1" xmlns="http://www.w3.org/2000/svg" xmlns:xlink="http://www.w3.org/1999/xlink" x="0px" y="0px"
	 viewBox="0 0 35.5 34" style="enable-background:new 0 0 35.5 34;" xml:space="preserve">
<style type="text/css">
	.st0{fill:#FFFFFF;}
</style>
<g id="Group_238" transform="translate(750 171)">
	<path id="Path_181" class="st0" d="M-726.6-151.8c0.7,0,1.4,0.5,1.5,1.3c0,0.4,0.3,0.7,0.7,0.7c0.4,0,0.7-0.3,0.7-0.7
		c0-1.2-0.9-2.3-2.1-2.5v-0.3c0-0.4-0.3-0.7-0.7-0.7c-0.4,0-0.7,0.3-0.7,0.7v0.3c-1.2,0.2-2.1,1.3-2.1,2.5c0.1,1.5,1.3,2.6,2.8,2.6
		c0.7,0.1,1.2,0.7,1.1,1.4c-0.1,0.7-0.7,1.2-1.4,1.1c-0.6-0.1-1.1-0.6-1.1-1.3c0-0.4-0.3-0.7-0.7-0.7s-0.7,0.3-0.7,0.7c0,0,0,0,0,0
		c0,1.2,0.9,2.3,2.1,2.5v0.3c0,0.4,0.3,0.7,0.7,0.7s0.7-0.3,0.7-0.7c0,0,0,0,0,0v-0.3c1.2-0.2,2.1-1.3,2.1-2.5
		c-0.1-1.5-1.3-2.6-2.8-2.6c-0.7,0.1-1.3-0.4-1.4-1.1c-0.1-0.7,0.4-1.3,1.1-1.4C-726.8-151.9-726.7-151.9-726.6-151.8L-726.6-151.8z
		"/>
	<path id="Path_182" class="st0" d="M-719.3-153.3c-0.9-1.3-2.1-2.4-3.5-3.1c-0.3-0.2-0.7,0-0.9,0.3c-0.2,0.3,0,0.7,0.3,0.9l0,0
		c3.6,1.7,5.2,6.1,3.4,9.7c0,0.1-0.1,0.2-0.1,0.3c-0.2,0.3-0.1,0.7,0.3,0.9c0.3,0.2,0.7,0.1,0.9-0.3c0,0,0,0,0,0
		C-717.5-147.3-717.6-150.6-719.3-153.3L-719.3-153.3z"/>
	<path id="Path_183" class="st0" d="M-725.6-155.9L-725.6-155.9c0.4,0,0.7-0.3,0.7-0.7c0-0.4-0.3-0.7-0.7-0.7h0
		c-0.4,0-0.7,0.3-0.7,0.7C-726.2-156.2-725.9-155.9-725.6-155.9L-725.6-155.9z"/>
	<path id="Path_184" class="st0" d="M-729.7-142c-3.6-1.7-5.2-6.1-3.4-9.7c0-0.1,0.1-0.2,0.1-0.3c0.2-0.3,0-0.7-0.3-0.9
		c-0.3-0.2-0.7,0-0.9,0.3c-2.2,4.2-0.6,9.4,3.6,11.6c0.1,0.1,0.2,0.1,0.3,0.2c0.3,0.2,0.7,0,0.9-0.3
		C-729.2-141.5-729.4-141.9-729.7-142L-729.7-142z"/>
	<path id="Path_185" class="st0" d="M-727.6-141.3L-727.6-141.3c-0.4,0-0.7,0.3-0.7,0.7c0,0.4,0.3,0.7,0.7,0.7h0
		c0.4,0,0.7-0.3,0.7-0.7C-726.9-141-727.2-141.3-727.6-141.3z"/>
	<path id="Path_186" class="st0" d="M-723.6-159.5c-0.1-0.2-0.2-0.4-0.3-0.5h1.7c1.7,0,3.1-1.3,3.1-3c0-1.7-1.3-3.1-3-3.1
		c0,0-0.1,0-0.1,0h-5.3c1-1.4,0.6-3.3-0.8-4.2c-0.5-0.3-1.1-0.5-1.7-0.5h-16.2c-1.7,0-3,1.4-3,3.1c0,1.6,1.4,3,3,3h5.3
		c-0.7,1-0.7,2.4,0,3.4h-1.7c-1.7,0-3,1.4-3,3c0,0.9,0.4,1.8,1.1,2.4c-1.3,1-1.5,3-0.5,4.3c0.1,0.2,0.3,0.4,0.5,0.5
		c-1.3,1-1.5,3-0.5,4.3c0.1,0.2,0.3,0.4,0.5,0.5c-1.3,1-1.5,3-0.5,4.3c0.6,0.7,1.5,1.2,2.4,1.2h7.8c4.2,4.5,11.4,4.8,15.9,0.5
		c4.5-4.2,4.8-11.4,0.5-15.9C-719.8-157.8-721.6-158.9-723.6-159.5z M-747.9-167.8c0-1,0.8-1.7,1.7-1.7h16.2c1,0,1.7,0.8,1.7,1.7
		c0,1-0.8,1.7-1.7,1.7h-16.2C-747.1-166.1-747.9-166.9-747.9-167.8z M-740.1-163c0-1,0.8-1.7,1.7-1.7h16.2c1,0,1.7,0.8,1.7,1.7
		c0,1-0.8,1.7-1.7,1.7l0,0h-16.2C-739.3-161.3-740.1-162.1-740.1-163L-740.1-163z M-744.3-158.3c0-1,0.8-1.7,1.7-1.7h16.2
		c0.3,0,0.5,0.1,0.7,0.2c-0.3,0-0.6,0-0.9,0c-3,0-5.9,1.2-8,3.3h-8.1C-743.5-156.6-744.3-157.3-744.3-158.3
		C-744.3-158.3-744.3-158.3-744.3-158.3L-744.3-158.3z M-744.3-153.5c0-1,0.8-1.7,1.7-1.7h6.9c-0.8,1-1.3,2.2-1.7,3.4h-5.2
		C-743.5-151.8-744.3-152.6-744.3-153.5C-744.3-153.5-744.3-153.5-744.3-153.5L-744.3-153.5z M-744.3-148.7c0-1,0.8-1.7,1.7-1.7h4.9
		c-0.2,1.1-0.2,2.3,0,3.4h-4.9C-743.5-147-744.3-147.8-744.3-148.7C-744.3-148.7-744.3-148.7-744.3-148.7L-744.3-148.7z
		 M-742.6-142.2c-1,0-1.7-0.8-1.7-1.7c0-1,0.8-1.7,1.7-1.7c0,0,0,0,0,0h5.2c0.3,1.2,0.9,2.4,1.6,3.4H-742.6z M-726.6-138.7
		c-5.5,0-9.9-4.4-9.9-9.9c0-5.5,4.4-9.9,9.9-9.9c5.5,0,9.9,4.4,9.9,9.9C-716.6-143.1-721.1-138.7-726.6-138.7L-726.6-138.7z"/>
</g>
</svg>
