<?xml version="1.0" encoding="utf-8"?>
<!-- Generator: Adobe Illustrator 24.1.2, SVG Export Plug-In . SVG Version: 6.00 Build 0)  -->
<svg version="1.1" id="Layer_1" xmlns="http://www.w3.org/2000/svg" xmlns:xlink="http://www.w3.org/1999/xlink" x="0px" y="0px"
	 viewBox="0 0 35.5 34" style="enable-background:new 0 0 35.5 34;" xml:space="preserve">
<style type="text/css">
	.st0{fill:#FFFFFF;}
</style>
<g id="Group_37" transform="translate(1139.5 80.4)">
	<path id="Path_45" class="st0" d="M-1109.4-64.3c1.8-1.2,2.2-3.7,1-5.4c-1.2-1.8-3.7-2.2-5.4-1c-1.8,1.2-2.2,3.6-1,5.4
		c0.3,0.4,0.6,0.7,1,1c-0.8,0.3-1.6,0.7-2.3,1.3c-0.9-0.8-2-1.4-3.1-1.7c2.3-1.4,3.1-4.4,1.7-6.8c-1.4-2.3-4.4-3.1-6.8-1.7
		c-2.3,1.4-3.1,4.4-1.7,6.8c0.4,0.7,1,1.3,1.7,1.7c-1.1,0.3-2.2,0.9-3.1,1.7c-0.7-0.6-1.4-1-2.3-1.3c1.8-1.2,2.2-3.7,1-5.4
		c-1.2-1.8-3.7-2.2-5.4-1c-1.8,1.2-2.2,3.6-1,5.4c0.3,0.4,0.6,0.7,1,1c-2.7,0.9-4.6,3.5-4.6,6.4v0.4c0,0,0,0,0,0h8.2
		c0,0.4-0.1,0.8-0.1,1.1v0.5c0,2,1.6,3.6,3.6,3.6c0,0,0,0,0,0h10.4c2,0,3.6-1.6,3.6-3.6c0,0,0,0,0,0v-0.5c0-0.4,0-0.8-0.1-1.1h8.3
		c0,0,0,0,0,0v-0.4C-1104.8-60.7-1106.7-63.3-1109.4-64.3z M-1114.4-67.5c0-1.5,1.3-2.8,2.8-2.8c1.5,0,2.8,1.3,2.8,2.8
		c0,1.5-1.2,2.8-2.8,2.8h-0.1C-1113.2-64.7-1114.4-65.9-1114.4-67.5L-1114.4-67.5z M-1125.7-68.8c0-2.1,1.7-3.8,3.8-3.8
		c2.1,0,3.8,1.7,3.8,3.8c0,2-1.6,3.7-3.6,3.8h-0.4C-1124.1-65.1-1125.7-66.8-1125.7-68.8z M-1134.8-67.4c0-1.5,1.3-2.8,2.8-2.8
		c1.5,0,2.8,1.3,2.8,2.8c0,1.5-1.2,2.8-2.8,2.8h-0.1C-1133.6-64.7-1134.8-65.9-1134.8-67.4z M-1130.4-58.4h-7.4
		c0.3-2.9,2.7-5.1,5.7-5.1h0.1c1.3,0,2.6,0.5,3.7,1.4C-1129.3-61.1-1130-59.8-1130.4-58.4L-1130.4-58.4z M-1114.1-55.8
		c0,1.4-1.1,2.5-2.5,2.5h-10.4c-1.4,0-2.5-1.1-2.5-2.5v-0.5c0-4.2,3.3-7.6,7.5-7.7c0.1,0,0.2,0,0.2,0s0.2,0,0.2,0
		c4.2,0.1,7.5,3.5,7.5,7.7L-1114.1-55.8z M-1113.3-58.4c-0.4-1.4-1.1-2.7-2-3.7c1-0.9,2.3-1.4,3.7-1.4h0.1c2.9,0,5.4,2.2,5.7,5.1
		L-1113.3-58.4z"/>
</g>
</svg>
