<?xml version="1.0" encoding="utf-8"?>
<!-- Generator: Adobe Illustrator 24.1.2, SVG Export Plug-In . SVG Version: 6.00 Build 0)  -->
<svg version="1.1" id="Layer_1" xmlns="http://www.w3.org/2000/svg" xmlns:xlink="http://www.w3.org/1999/xlink" x="0px" y="0px"
	 viewBox="0 0 35.5 34" style="enable-background:new 0 0 35.5 34;" xml:space="preserve">
<style type="text/css">
	.st0{fill:#FFFFFF;}
</style>
<g id="Group_24" transform="translate(1343.615 -33)">
	<path id="Path_30" class="st0" d="M-1310.8,49.5v-6.4c0-1.5-1.2-2.7-2.7-2.7h-0.9l0.2-0.7c0.3-1.1-0.3-2.3-1.5-2.6c0,0,0,0,0,0
		l-6.1-1.7c-0.3-0.1-0.6,0.1-0.7,0.4c-0.1,0.3,0.1,0.6,0.4,0.7l0,0l3.8,1.1c-0.5,0.9-0.5,2,0,3h-11.2v-4.2c0-0.3-0.2-0.5-0.5-0.5
		s-0.5,0.2-0.5,0.5v4.2h-1.8v-4.2c0-0.3-0.2-0.5-0.5-0.5s-0.5,0.2-0.5,0.5v4.2h-2.3v-4.6c0-0.6,0.5-1.1,1.1-1.1h9
		c0.6,0,1.1,0.5,1.1,1.1v2.9c0,0.3,0.2,0.5,0.5,0.5s0.5-0.2,0.5-0.5v-2.9c0-1.2-1-2.1-2.1-2.1h-9c-1.2,0-2.1,1-2.1,2.1v4.6h-1.7
		c-1.5,0-2.7,1.2-2.7,2.7V63c0,1.5,1.2,2.7,2.7,2.7h24.9c1.5,0,2.7-1.2,2.7-2.7v-3.9c0-0.3-0.2-0.5-0.5-0.5c-0.3,0-0.5,0.2-0.5,0.5
		V63c0,0.9-0.7,1.6-1.6,1.6h-24.9c-0.9,0-1.6-0.7-1.6-1.6V43.1c0-0.9,0.7-1.6,1.6-1.6h24.9c0.9,0,1.6,0.7,1.6,1.6v6.3h-4.4
		c-1.2,0-2.1,1-2.1,2.1v2.9c0,1.2,1,2.1,2.1,2.1h5.1c1.2,0,2.1-1,2.1-2.1v-2.9C-1309,50.6-1309.8,49.7-1310.8,49.5L-1310.8,49.5z
		 M-1317.1,37.8l1.2,0.3c0.6,0.2,0.9,0.8,0.7,1.3c0,0,0,0,0,0l-0.3,1h-1.4C-1317.6,39.7-1317.7,38.6-1317.1,37.8L-1317.1,37.8z
		 M-1310.1,54.6c0,0.6-0.5,1.1-1.1,1.1h-5.1c-0.6,0-1.1-0.5-1.1-1.1v-2.9c0-0.6,0.5-1.1,1.1-1.1h5.1c0.6,0,1.1,0.5,1.1,1.1V54.6z
		 M-1314.3,53.1c0,0.3-0.2,0.5-0.5,0.5l0,0h-0.8c-0.3,0-0.5-0.2-0.5-0.5s0.2-0.5,0.5-0.5h0.8C-1314.5,52.5-1314.3,52.8-1314.3,53.1z
		"/>
</g>
</svg>
