<?xml version="1.0" encoding="utf-8"?>
<!-- Generator: Adobe Illustrator 24.1.2, SVG Export Plug-In . SVG Version: 6.00 Build 0)  -->
<svg version="1.1" id="Layer_1" xmlns="http://www.w3.org/2000/svg" xmlns:xlink="http://www.w3.org/1999/xlink" x="0px" y="0px"
	 viewBox="0 0 31.3 25.9" style="enable-background:new 0 0 31.3 25.9;" xml:space="preserve">
<style type="text/css">
	.st0{fill:#FFFFFF;}
</style>
<g id="Group_91" transform="translate(1165.999 430.087)">
	<path id="Path_95" class="st0" d="M-1150.3-417.8c-1.9,0-3.4-1.5-3.4-3.4c0-1.9,1.5-3.4,3.4-3.4c1.9,0,3.4,1.5,3.4,3.4
		C-1146.9-419.4-1148.5-417.8-1150.3-417.8z M-1150.3-423.3c-1.1,0-2,0.9-2,2c0,1.1,0.9,2,2,2c1.1,0,2-0.9,2-2
		C-1148.3-422.4-1149.2-423.3-1150.3-423.3L-1150.3-423.3z"/>
	<path id="Path_96" class="st0" d="M-1144.9-412.4h-10.9c-0.4,0-0.7-0.3-0.7-0.7c0-3.4,2.8-6.1,6.2-6.1c3.3,0,6,2.7,6.1,6.1
		C-1144.2-412.7-1144.5-412.4-1144.9-412.4z M-1155.1-413.7h9.4c-0.4-2.6-2.8-4.4-5.4-4C-1153.1-417.5-1154.7-415.8-1155.1-413.7z"
		/>
	<path id="Path_97" class="st0" d="M-1158.5-423.3c-1.9,0-3.4-1.5-3.4-3.4c0-1.9,1.5-3.4,3.4-3.4c1.9,0,3.4,1.5,3.4,3.4l0,0
		C-1155.1-424.8-1156.6-423.3-1158.5-423.3z M-1158.5-428.7c-1.1,0-2,0.9-2,2c0,1.1,0.9,2,2,2c1.1,0,2-0.9,2-2l0,0
		C-1156.5-427.8-1157.4-428.7-1158.5-428.7L-1158.5-428.7z"/>
	<path id="Path_98" class="st0" d="M-1162.6-413.7c-1.9,0-3.4-1.5-3.4-3.4c0-1.9,1.5-3.4,3.4-3.4c1.9,0,3.4,1.5,3.4,3.4
		C-1159.2-415.3-1160.7-413.7-1162.6-413.7z M-1162.6-419.2c-1.1,0-2,0.9-2,2c0,1.1,0.9,2,2,2c1.1,0,2-0.9,2-2
		C-1160.5-418.3-1161.5-419.2-1162.6-419.2L-1162.6-419.2z"/>
	<path id="Path_99" class="st0" d="M-1158.5-404.2c-1.9,0-3.4-1.5-3.4-3.4s1.5-3.4,3.4-3.4c1.9,0,3.4,1.5,3.4,3.4
		C-1155.1-405.7-1156.6-404.2-1158.5-404.2z M-1158.5-409.7c-1.1,0-2,0.9-2,2c0,1.1,0.9,2,2,2c1.1,0,2-0.9,2-2
		C-1156.5-408.7-1157.4-409.7-1158.5-409.7L-1158.5-409.7z"/>
	<path id="Path_100" class="st0" d="M-1142.2-404.2c-1.9,0-3.4-1.5-3.4-3.4c0-1.9,1.5-3.4,3.4-3.4c1.9,0,3.4,1.5,3.4,3.4
		C-1138.8-405.7-1140.3-404.2-1142.2-404.2z M-1142.2-409.7c-1.1,0-2,0.9-2,2c0,1.1,0.9,2,2,2c1.1,0,2-0.9,2-2
		C-1140.1-408.7-1141-409.7-1142.2-409.7L-1142.2-409.7z"/>
	<path id="Path_101" class="st0" d="M-1138.1-413.7c-1.9,0-3.4-1.5-3.4-3.4c0-1.9,1.5-3.4,3.4-3.4s3.4,1.5,3.4,3.4
		C-1134.7-415.3-1136.2-413.7-1138.1-413.7z M-1138.1-419.2c-1.1,0-2,0.9-2,2c0,1.1,0.9,2,2,2c1.1,0,2-0.9,2-2
		C-1136-418.3-1136.9-419.2-1138.1-419.2L-1138.1-419.2z"/>
	<path id="Path_102" class="st0" d="M-1142.2-423.3c-1.9,0-3.4-1.5-3.4-3.4c0-1.9,1.5-3.4,3.4-3.4c1.9,0,3.4,1.5,3.4,3.4
		C-1138.8-424.8-1140.3-423.3-1142.2-423.3z M-1142.2-428.7c-1.1,0-2,0.9-2,2c0,1.1,0.9,2,2,2c1.1,0,2-0.9,2-2
		C-1140.1-427.8-1141-428.7-1142.2-428.7L-1142.2-428.7z"/>
	<path id="Path_103" class="st0" d="M-1155.1-422.6c-0.2,0-0.4-0.1-0.5-0.2l-1.4-1.4c-0.3-0.3-0.3-0.7,0-1c0.3-0.3,0.7-0.3,1,0
		l1.4,1.4c0.3,0.3,0.3,0.7,0,1C-1154.7-422.7-1154.9-422.6-1155.1-422.6L-1155.1-422.6z"/>
	<path id="Path_104" class="st0" d="M-1157.1-416.5h-2.7c-0.4,0-0.7-0.3-0.7-0.7c0-0.4,0.3-0.7,0.7-0.7c0,0,0,0,0,0h2.7
		c0.4,0,0.7,0.3,0.7,0.7C-1156.5-416.8-1156.8-416.5-1157.1-416.5z"/>
	<path id="Path_105" class="st0" d="M-1156.5-409c-0.4,0-0.7-0.3-0.7-0.7c0-0.2,0.1-0.4,0.2-0.5l1.4-1.4c0.3-0.3,0.7-0.3,1,0
		c0.3,0.3,0.3,0.7,0,1c0,0,0,0,0,0l-1.4,1.4C-1156.1-409-1156.3-409-1156.5-409z"/>
	<path id="Path_106" class="st0" d="M-1144.2-409c-0.2,0-0.4-0.1-0.5-0.2l-1.4-1.4c-0.3-0.3-0.3-0.7,0-1c0.3-0.3,0.7-0.3,1,0
		c0,0,0,0,0,0l1.4,1.4c0.3,0.3,0.3,0.7,0,1C-1143.8-409-1144-409-1144.2-409L-1144.2-409z"/>
	<path id="Path_107" class="st0" d="M-1140.8-416.5h-2.7c-0.4,0-0.7-0.3-0.7-0.7c0-0.4,0.3-0.7,0.7-0.7c0,0,0,0,0,0h2.7
		c0.4,0,0.7,0.3,0.7,0.7S-1140.4-416.5-1140.8-416.5C-1140.8-416.5-1140.8-416.5-1140.8-416.5z"/>
	<path id="Path_108" class="st0" d="M-1145.6-422.6c-0.4,0-0.7-0.3-0.7-0.7c0-0.2,0.1-0.4,0.2-0.5l1.4-1.4c0.3-0.3,0.7-0.3,1,0
		c0.3,0.3,0.3,0.7,0,1l-1.4,1.4C-1145.2-422.7-1145.4-422.6-1145.6-422.6z"/>
</g>
</svg>
