<?xml version="1.0" encoding="utf-8"?>
<!-- Generator: Adobe Illustrator 16.0.0, SVG Export Plug-In . SVG Version: 6.00 Build 0)  -->
<!DOCTYPE svg PUBLIC "-//W3C//DTD SVG 1.1//EN" "http://www.w3.org/Graphics/SVG/1.1/DTD/svg11.dtd">
<svg version="1.1" id="Layer_1" xmlns="http://www.w3.org/2000/svg" xmlns:xlink="http://www.w3.org/1999/xlink" x="0px" y="0px"
	 width="23.375px" height="22.75px" viewBox="0 0 23.375 22.75" enable-background="new 0 0 23.375 22.75" xml:space="preserve">
<path id="Path_176" opacity="0.8" fill="#FFFFFF" enable-background="new    " d="M16.743,3.712c-0.282-0.282-0.738-0.282-1.021,0
	c-0.135,0.135-0.21,0.318-0.21,0.51v2.164h-5.046c-0.398-0.001-0.722,0.321-0.723,0.719c0,0.398,0.322,0.721,0.72,0.722
	c0.001,0,0.001,0,0.003,0h5.766c0.398,0,0.721-0.322,0.721-0.721l0,0V5.964l3.306,3.302l-3.306,3.305V11.43
	c0-0.398-0.322-0.721-0.721-0.721l0,0H8.305V8.546c0-0.398-0.323-0.721-0.72-0.721c-0.192,0-0.375,0.076-0.51,0.211l-5.045,5.045
	c-0.282,0.281-0.282,0.738,0,1.019c0,0.001,0,0.001,0,0.001l5.045,5.045c0.136,0.136,0.318,0.211,0.51,0.211
	c0.094,0,0.188-0.018,0.275-0.054c0.27-0.112,0.445-0.375,0.445-0.667v-2.162h5.046c0.398,0.002,0.721-0.32,0.722-0.719
	c0.001-0.397-0.321-0.721-0.72-0.721c-0.001,0-0.002,0-0.002,0H7.584c-0.399,0-0.721,0.321-0.721,0.72l0,0v1.141l-3.307-3.305
	l3.305-3.305v1.145c0,0.398,0.324,0.72,0.721,0.72l0,0h7.93v2.162c0,0.399,0.321,0.721,0.72,0.721c0.191,0,0.375-0.075,0.511-0.21
	l5.045-5.046c0.281-0.282,0.281-0.738,0-1.019l0,0L16.743,3.712z"/>
</svg>
