<?xml version="1.0" encoding="utf-8"?>
<!-- Generator: Adobe Illustrator 24.1.2, SVG Export Plug-In . SVG Version: 6.00 Build 0)  -->
<svg version="1.1" id="Layer_1" xmlns="http://www.w3.org/2000/svg" xmlns:xlink="http://www.w3.org/1999/xlink" x="0px" y="0px"
	 viewBox="0 0 16 18" style="enable-background:new 0 0 16 18;" xml:space="preserve">
<style type="text/css">
	.st0{fill:#57606F;}
</style>
<g id="Group_54" transform="translate(-4675 577)">
	<path id="Path_76" class="st0" d="M4677.9-559.4h9.9c0.9,0,1.7-0.7,1.7-1.7v-7.7c0-0.9-0.7-1.7-1.7-1.7h-9.9
		c-0.9,0-1.7,0.7-1.7,1.7v7.7C4676.3-560.1,4677-559.4,4677.9-559.4z M4687.9-569.3c0.3,0,0.6,0.2,0.6,0.6v7.7
		c0,0.3-0.2,0.6-0.6,0.6h-9.9c-0.3,0-0.6-0.2-0.6-0.6v-7.7c0-0.3,0.2-0.6,0.6-0.6H4687.9z"/>
	<path id="Path_77" class="st0" d="M4679-569.3c0.3,0,0.6-0.2,0.6-0.6v-2.8c0-1.8,1.5-3.3,3.3-3.3s3.3,1.5,3.3,3.3v2.8
		c0,0.3,0.3,0.5,0.6,0.5c0.3,0,0.5-0.2,0.5-0.5v-2.8c0-2.4-2-4.4-4.4-4.4c-2.4,0-4.4,2-4.4,4.4v2.8
		C4678.5-569.5,4678.7-569.3,4679-569.3z"/>
	<path id="Path_78" class="st0" d="M4682.9-564.5c0.8,0,1.5-0.7,1.5-1.5c0-0.8-0.7-1.5-1.5-1.5c-0.8,0-1.5,0.7-1.5,1.5l0,0
		C4681.4-565.2,4682.1-564.5,4682.9-564.5L4682.9-564.5z M4682.9-566.3c0.2,0,0.4,0.2,0.4,0.4s-0.2,0.4-0.4,0.4
		c-0.2,0-0.4-0.2-0.4-0.4C4682.5-566.2,4682.7-566.3,4682.9-566.3z"/>
	<path id="Path_79" class="st0" d="M4682.9-562.3c0.3,0,0.6-0.2,0.6-0.6v-2c0-0.3-0.2-0.6-0.5-0.6c-0.3,0-0.6,0.2-0.6,0.5
		c0,0,0,0,0,0v2C4682.3-562.6,4682.6-562.3,4682.9-562.3L4682.9-562.3z"/>
</g>
</svg>
