<?xml version="1.0" encoding="utf-8"?>
<!-- Generator: Adobe Illustrator 24.1.2, SVG Export Plug-In . SVG Version: 6.00 Build 0)  -->
<svg version="1.1" id="Layer_1" xmlns="http://www.w3.org/2000/svg" xmlns:xlink="http://www.w3.org/1999/xlink" x="0px" y="0px"
	 viewBox="0 0 20 18" style="enable-background:new 0 0 20 18;" xml:space="preserve">
<style type="text/css">
	.st0{fill:#57606F;}
</style>
<g id="Group_53" transform="translate(-4423 812.603)">
	<path id="Path_74" class="st0" d="M4442.2-804.1l-2.1-1.5c-0.3-0.2-0.6-0.1-0.8,0.1c-0.1,0.1-0.1,0.2-0.1,0.3v0.9h-10.1
		c-0.3,0-0.6,0.3-0.6,0.6c0,0.3,0.3,0.6,0.6,0.6h10.1v0.9c0,0.3,0.3,0.6,0.6,0.6c0.1,0,0.2,0,0.3-0.1l2.1-1.5
		c0.3-0.2,0.4-0.5,0.2-0.8C4442.4-804,4442.3-804,4442.2-804.1z"/>
	<path id="Path_75" class="st0" d="M4439.4-799.9c-0.3-0.2-0.6-0.1-0.8,0.2c-2.2,3.7-6.9,5-10.6,2.9c-3.7-2.2-5-6.9-2.9-10.6
		c2.2-3.7,6.9-5,10.6-2.9c1.2,0.7,2.2,1.7,2.9,2.9c0.2,0.3,0.5,0.4,0.8,0.2c0.3-0.2,0.4-0.5,0.2-0.8c-2.5-4.3-7.9-5.7-12.2-3.3
		c-4.3,2.5-5.7,7.9-3.3,12.2c2.5,4.3,7.9,5.7,12.2,3.3c1.4-0.8,2.5-1.9,3.3-3.3C4439.7-799.4,4439.6-799.7,4439.4-799.9z"/>
</g>
</svg>
