<?xml version="1.0" encoding="utf-8"?>
<!-- Generator: Adobe Illustrator 16.0.0, SVG Export Plug-In . SVG Version: 6.00 Build 0)  -->
<!DOCTYPE svg PUBLIC "-//W3C//DTD SVG 1.1//EN" "http://www.w3.org/Graphics/SVG/1.1/DTD/svg11.dtd">
<svg version="1.1" id="Layer_1" xmlns="http://www.w3.org/2000/svg" xmlns:xlink="http://www.w3.org/1999/xlink" x="0px" y="0px"
	 width="23.375px" height="22.75px" viewBox="0 0 23.375 22.75" enable-background="new 0 0 23.375 22.75" xml:space="preserve">
<g id="Group_51" transform="translate(-4581 358.485)" opacity="0.8">
	<path id="Path_69" fill="#FFFFFF" stroke="#FFFFFF" stroke-width="0.3" d="M4592.932-343.395c-0.328-0.004-0.592-0.268-0.596-0.596
		v-12.29c-0.013-0.328,0.242-0.605,0.57-0.619c0.328-0.014,0.605,0.242,0.619,0.57c0.001,0.017,0.001,0.033,0,0.049v12.29
		C4593.523-343.663,4593.258-343.399,4592.932-343.395L4592.932-343.395z"/>
	<path id="Path_70" fill="#FFFFFF" stroke="#FFFFFF" stroke-width="0.3" d="M4592.932-343.395c-0.158,0-0.309-0.063-0.42-0.176
		l-3.172-3.172c-0.24-0.225-0.252-0.601-0.027-0.841s0.601-0.252,0.84-0.028c0.01,0.009,0.02,0.018,0.028,0.028l2.751,2.751
		l2.751-2.751c0.225-0.24,0.601-0.252,0.841-0.028s0.252,0.601,0.027,0.841c-0.008,0.01-0.018,0.019-0.027,0.028l-3.172,3.172
		c-0.112,0.111-0.264,0.175-0.422,0.176H4592.932z"/>
	<path id="Path_71" fill="#FFFFFF" stroke="#FFFFFF" stroke-width="0.3" d="M4600.266-337.846h-14.668
		c-1.204,0-2.18-0.976-2.182-2.18v-3.568c-0.014-0.328,0.242-0.605,0.57-0.618c0.328-0.014,0.605,0.241,0.619,0.569
		c0.001,0.018,0.001,0.033,0,0.049v3.568c0.001,0.547,0.444,0.99,0.991,0.991h14.669c0.547-0.001,0.99-0.444,0.99-0.991v-3.568
		c-0.013-0.328,0.242-0.605,0.57-0.618c0.328-0.014,0.605,0.241,0.619,0.569c0.001,0.018,0.001,0.033,0,0.049v3.568
		c0,1.205-0.977,2.181-2.181,2.182L4600.266-337.846z"/>
</g>
</svg>
