<?xml version="1.0" encoding="utf-8"?>
<!-- Generator: Adobe Illustrator 16.0.0, SVG Export Plug-In . SVG Version: 6.00 Build 0)  -->
<!DOCTYPE svg PUBLIC "-//W3C//DTD SVG 1.1//EN" "http://www.w3.org/Graphics/SVG/1.1/DTD/svg11.dtd">
<svg version="1.1" id="Layer_1" xmlns="http://www.w3.org/2000/svg" xmlns:xlink="http://www.w3.org/1999/xlink" x="0px" y="0px"
	 width="23.375px" height="22.75px" viewBox="0 0 23.375 22.75" enable-background="new 0 0 23.375 22.75" xml:space="preserve">
<g id="Group_50" transform="translate(-4437 388.734)">
	<path id="Path_67" fill="#FFFFFF" d="M4456.236-369.655h-15.346c-1.297-0.001-2.348-1.052-2.349-2.349v-10.022
		c0.001-1.297,1.052-2.348,2.349-2.349h15.346c1.297,0.001,2.348,1.052,2.35,2.349v10.022
		C4458.584-370.707,4457.533-369.656,4456.236-369.655z M4440.891-382.809c-0.432,0-0.783,0.351-0.783,0.783v10.022
		c0,0.432,0.352,0.782,0.783,0.783h15.346c0.433-0.001,0.783-0.352,0.783-0.783v-10.022c0-0.433-0.351-0.783-0.783-0.783H4440.891z"
		/>
	<path id="Path_68" fill="#FFFFFF" d="M4448.563-375.257l-9.258-6.886l0.935-1.256l8.323,6.191l8.319-6.191l0.936,1.256
		L4448.563-375.257z"/>
</g>
</svg>
