<?xml version="1.0" encoding="utf-8"?>
<!-- Generator: Adobe Illustrator 16.0.0, SVG Export Plug-In . SVG Version: 6.00 Build 0)  -->
<!DOCTYPE svg PUBLIC "-//W3C//DTD SVG 1.1//EN" "http://www.w3.org/Graphics/SVG/1.1/DTD/svg11.dtd">
<svg version="1.1" id="Layer_1" xmlns="http://www.w3.org/2000/svg" xmlns:xlink="http://www.w3.org/1999/xlink" x="0px" y="0px"
	 width="736px" height="560px" viewBox="0 0 736 560" enable-background="new 0 0 736 560" xml:space="preserve">
<path fill="#FFFFFF" d="M465.245,274.629l14.454,18.082c3.342,4.181,8.337,6.701,13.686,6.907c0.236,0.009,0.473,0.013,0.708,0.013
	c5.095,0,9.975-2.111,13.466-5.85l152.747-163.584c6.321-6.77,6.635-17.18,0.731-24.317l-44.216-53.463
	c-5.063-6.123-13.483-8.313-20.887-5.425l-215.052,83.787c-3.158,1.23-5.864,3.291-7.883,5.901c-2.02-2.61-4.725-4.671-7.883-5.901
	L150.066,46.991c-7.406-2.886-15.824-0.698-20.888,5.425L84.962,105.88c-5.903,7.138-5.589,17.548,0.732,24.317l152.747,163.584
	c3.491,3.739,8.371,5.85,13.466,5.85c0.235,0,0.472-0.004,0.708-0.013c5.348-0.206,10.343-2.727,13.685-6.908l11.663-14.59
	c4.274,7.581,9.819,16.624,16.429,25.705c4.464,6.134,8.978,11.699,13.537,16.695c-57.106,77.758-76.296,193.963-77.114,199.061
	c-1.612,10.048,5.226,19.5,15.273,21.112c0.989,0.159,1.971,0.235,2.942,0.235c8.889,0,16.716-6.45,18.17-15.508
	c0.185-1.149,18.258-110.76,69.226-181.441c10.793,6.055,21.771,9.11,32.881,9.11c13.485,0,27.088-4.765,40.703-14.205
	c53.636,70.094,72.751,184.936,73.012,186.536c1.454,9.059,9.28,15.508,18.17,15.508c0.97,0,1.953-0.076,2.942-0.235
	c10.047-1.612,16.885-11.064,15.272-21.112c-0.842-5.246-21.143-128.18-82.211-205.766c3.335-3.843,6.666-7.96,9.993-12.36
	C454.349,291.982,460.47,282.553,465.245,274.629z M596.908,86.16l25.41,30.725L495.174,253.05l-77.563-97.034L596.908,86.16z
	 M250.826,253.05L123.681,116.885l25.411-30.725l179.297,69.856L250.826,253.05z M369.307,316.239
	c-25.642,0-54.672-45.026-66.246-69.517l69.76-87.272c0.063-0.078,0.118-0.16,0.18-0.238c0.061,0.079,0.116,0.16,0.179,0.238
	l67.356,84.266C426.141,270.662,394.471,316.239,369.307,316.239z"/>
</svg>
