<?xml version="1.0" encoding="utf-8"?>
<!-- Generator: Adobe Illustrator 16.0.0, SVG Export Plug-In . SVG Version: 6.00 Build 0)  -->
<!DOCTYPE svg PUBLIC "-//W3C//DTD SVG 1.1//EN" "http://www.w3.org/Graphics/SVG/1.1/DTD/svg11.dtd">
<svg version="1.1" id="Layer_1" xmlns="http://www.w3.org/2000/svg" xmlns:xlink="http://www.w3.org/1999/xlink" x="0px" y="0px"
	 width="26.917px" height="24px" viewBox="0 0 26.917 24" enable-background="new 0 0 26.917 24" xml:space="preserve">
<g id="Group_74" transform="translate(16 12)">
	<path id="Path_81" fill="#4778BB" d="M-5.823-12h-4.18c-0.385,0-0.699,0.313-0.699,0.7l0,0v2.589c0,0.12,0.031,0.238,0.09,0.342
		l4.789,7.826V-12z"/>
	<path id="Path_82" fill="#4778BB" d="M5.099-12H0.925v11.461l4.787-7.826c0.059-0.104,0.09-0.222,0.09-0.342V-11.3
		c0-0.387-0.313-0.7-0.699-0.7l0,0H5.099z"/>
	<path id="Path_83" fill="#4778BB" d="M-2.45-1.359c0.666,0,1.328,0.09,1.969,0.268V-12h-3.938v10.908
		C-3.776-1.271-3.116-1.36-2.45-1.359L-2.45-1.359z"/>
	<path id="Path_84" fill="#4778BB" d="M-2.45,0c-3.314,0-6,2.686-6,6c0,3.313,2.686,6,6,6s6-2.687,6-6
		C3.546,2.688,0.863,0.003-2.45,0z M-1.75,7.406c0,0.388-0.314,0.703-0.701,0.703c-0.389,0-0.703-0.315-0.703-0.703V4.594
		c0-0.388,0.314-0.703,0.703-0.703c0.387,0,0.701,0.315,0.701,0.703V7.406z"/>
</g>
</svg>
