<?xml version="1.0" encoding="utf-8"?>
<!-- Generator: Adobe Illustrator 16.0.0, SVG Export Plug-In . SVG Version: 6.00 Build 0)  -->
<!DOCTYPE svg PUBLIC "-//W3C//DTD SVG 1.1//EN" "http://www.w3.org/Graphics/SVG/1.1/DTD/svg11.dtd">
<svg version="1.1" id="Layer_1" xmlns="http://www.w3.org/2000/svg" xmlns:xlink="http://www.w3.org/1999/xlink" x="0px" y="0px"
	 width="88px" height="85.5px" viewBox="0 0 88 85.5" enable-background="new 0 0 88 85.5" xml:space="preserve">
<g>
	<path fill="#A4B0BE" d="M29.151,49.752v-9.536l4.724-4.726c0.077-0.076,0.165-0.087,0.212-0.087c0.045,0,0.133,0.011,0.21,0.087
		l1.017,1.017c0.348,0.349,0.913,0.349,1.261,0c0.349-0.348,0.349-0.914,0-1.262l-1.017-1.017c-0.393-0.393-0.916-0.61-1.471-0.61
		c-0.558,0-1.08,0.217-1.473,0.61l-3.463,3.463V25.325c0-0.165,0.134-0.297,0.298-0.297h30.318c0.164,0,0.297,0.133,0.297,0.297
		v24.427c0,0.164-0.133,0.297-0.297,0.297h-0.87L47.778,38.931c-0.812-0.812-2.132-0.812-2.944,0l-2.287,2.286l-3.129-3.13
		c-0.349-0.349-0.913-0.349-1.262,0c-0.349,0.349-0.349,0.914,0,1.263l3.339,3.339c0.281,0.281,0.655,0.435,1.052,0.435
		c0.397,0,0.771-0.154,1.052-0.435l2.496-2.497c0.116-0.116,0.305-0.116,0.421,0l9.856,9.856H29.448
		C29.285,50.049,29.151,49.916,29.151,49.752z M61.848,49.752V25.325c0-1.148-0.934-2.082-2.082-2.082H29.448
		c-1.148,0-2.082,0.934-2.082,2.082v24.427c0,1.148,0.934,2.082,2.082,2.082h30.318C60.915,51.834,61.848,50.9,61.848,49.752z"/>
	<path fill="#A4B0BE" d="M67.839,56.558V45.13c0-0.494-0.4-0.893-0.893-0.893c-0.493,0-0.893,0.399-0.893,0.893v10.083
		c-1.494-0.886-3.237-1.396-5.097-1.396c-5.109,0-9.335,3.838-9.955,8.781H24.054c-0.492,0-0.893-0.4-0.893-0.893V15.621
		c0-0.492,0.4-0.893,0.893-0.893h41.108c0.491,0,0.892,0.4,0.892,0.893v25.063c0,0.492,0.4,0.892,0.893,0.892
		c0.493,0,0.893-0.4,0.893-0.892V15.621c0-1.477-1.201-2.677-2.677-2.677H24.054c-1.476,0-2.677,1.201-2.677,2.677v46.084
		c0,1.477,1.201,2.677,2.677,2.677h26.882c0.095,1.841,0.688,3.604,1.73,5.128c0.278,0.407,0.834,0.511,1.24,0.233
		c0.407-0.278,0.511-0.833,0.233-1.24c-0.938-1.373-1.435-2.981-1.435-4.651c0-4.55,3.701-8.251,8.251-8.251
		c4.549,0,8.25,3.702,8.25,8.251c0,4.55-3.701,8.251-8.25,8.251c-1.356,0-2.7-0.336-3.888-0.972
		c-0.435-0.232-0.976-0.069-1.208,0.366c-0.232,0.435-0.069,0.975,0.366,1.208c1.445,0.773,3.081,1.183,4.73,1.183
		c5.533,0,10.036-4.502,10.036-10.036C70.993,60.981,69.779,58.39,67.839,56.558z"/>
	<path fill="#A4B0BE" d="M60.957,59.262c-0.493,0-0.893,0.399-0.893,0.892v2.833h-2.833c-0.493,0-0.892,0.399-0.892,0.892
		c0,0.493,0.399,0.893,0.892,0.893h2.833v2.833c0,0.493,0.4,0.892,0.893,0.892s0.892-0.399,0.892-0.892v-2.833h2.833
		c0.493,0,0.893-0.399,0.893-0.893c0-0.493-0.4-0.892-0.893-0.892h-2.833v-2.833C61.848,59.661,61.449,59.262,60.957,59.262z"/>
	<circle fill="#A4B0BE" cx="29.509" cy="56.017" r="1.25"/>
	<circle fill="#A4B0BE" cx="33.928" cy="56.017" r="1.25"/>
	<circle fill="#A4B0BE" cx="38.347" cy="56.018" r="1.25"/>
	<path fill="#A4B0BE" d="M48.04,20.361c0.493,0,0.893-0.399,0.893-0.892s-0.4-0.892-0.893-0.892h-3.867
		c-0.492,0-0.892,0.398-0.892,0.892s0.4,0.892,0.892,0.892H48.04z"/>
	<path fill="#A4B0BE" d="M39.592,20.361c0.493,0,0.893-0.399,0.893-0.892s-0.4-0.892-0.893-0.892h-10.56
		c-0.494,0-0.893,0.398-0.893,0.892s0.399,0.892,0.893,0.892H39.592z"/>
	<path fill="#A4B0BE" d="M52.167,31.224c0.759,0,1.375,0.617,1.375,1.376c0,0.758-0.617,1.376-1.375,1.376
		c-0.758,0-1.376-0.618-1.376-1.376C50.791,31.841,51.409,31.224,52.167,31.224z M52.167,35.761c1.743,0,3.161-1.418,3.161-3.161
		s-1.418-3.16-3.161-3.16s-3.161,1.417-3.161,3.16S50.424,35.761,52.167,35.761z"/>
</g>
</svg>
