<?xml version="1.0" encoding="utf-8"?>
<!-- Generator: Adobe Illustrator 24.1.2, SVG Export Plug-In . SVG Version: 6.00 Build 0)  -->
<svg version="1.1" id="Layer_1" xmlns="http://www.w3.org/2000/svg" xmlns:xlink="http://www.w3.org/1999/xlink" x="0px" y="0px"
	 viewBox="0 0 16 16" style="enable-background:new 0 0 16 16;" xml:space="preserve">
<style type="text/css">
	.st0{fill:#57606F;}
</style>
<path id="Path_72" class="st0" d="M13.7,10.3c-0.9-0.9-1.9-1.5-3-1.9C12.7,7,13.3,4.1,11.8,2c-1.4-2.1-4.3-2.6-6.4-1.2
	C3.3,2.3,2.7,5.1,4.2,7.2c0.3,0.5,0.7,0.9,1.2,1.2C2.2,9.6,0,12.6,0,16h1.3c0-3.7,3-6.8,6.8-6.8c3.7,0,6.8,3,6.8,6.8H16
	C16,13.9,15.2,11.8,13.7,10.3z M4.6,4.6c0-1.9,1.5-3.4,3.4-3.4c1.9,0,3.4,1.5,3.4,3.4C11.4,6.5,9.9,8,8,8C6.1,8,4.6,6.5,4.6,4.6z"/>
</svg>
