<?xml version="1.0" encoding="utf-8"?>
<!-- Generator: Adobe Illustrator 16.0.0, SVG Export Plug-In . SVG Version: 6.00 Build 0)  -->
<!DOCTYPE svg PUBLIC "-//W3C//DTD SVG 1.1//EN" "http://www.w3.org/Graphics/SVG/1.1/DTD/svg11.dtd">
<svg version="1.1" id="Layer_1" xmlns="http://www.w3.org/2000/svg" xmlns:xlink="http://www.w3.org/1999/xlink" x="0px" y="0px"
	 width="23.375px" height="22.75px" viewBox="0 0 23.375 22.75" enable-background="new 0 0 23.375 22.75" xml:space="preserve">
<g id="Group_230" transform="translate(-4647 246)" opacity="0.8">
	<path id="Path_171" fill="#FFFFFF" d="M4663.864-237h0.225c0.354,0,0.641-0.287,0.641-0.641v-2.99c0-0.354-0.287-0.641-0.641-0.641
		s-0.641,0.287-0.641,0.641v0.8c-2.03-2.599-5.783-3.059-8.382-1.028c-1.069,0.836-1.823,2.013-2.134,3.334
		c-0.08,0.344,0.134,0.688,0.478,0.769c0.048,0.012,0.098,0.018,0.147,0.017c0.297,0,0.556-0.205,0.623-0.494
		c0.595-2.522,3.121-4.085,5.642-3.49c1.344,0.316,2.479,1.208,3.105,2.438h-1.828c-0.354,0-0.64,0.287-0.64,0.641
		c0,0.354,0.286,0.641,0.64,0.641h2.766V-237z"/>
	<path id="Path_172" fill="#FFFFFF" d="M4652.344-231.021c1.18,0,2.136-0.956,2.136-2.135c0-1.18-0.956-2.135-2.136-2.135
		c-1.179,0-2.135,0.956-2.135,2.135C4650.209-231.977,4651.165-231.021,4652.344-231.021z M4652.344-234.01
		c0.472,0,0.854,0.382,0.854,0.854c0,0.471-0.382,0.854-0.854,0.854c-0.471,0-0.854-0.382-0.854-0.854
		C4651.49-233.628,4651.873-234.01,4652.344-234.01z"/>
	<path id="Path_173" fill="#FFFFFF" d="M4653.839-230.166h-2.989c-1.297,0.001-2.348,1.052-2.349,2.349v0.427
		c0,0.354,0.287,0.641,0.641,0.641c0.354,0,0.641-0.287,0.641-0.641v-0.427c0.001-0.589,0.479-1.066,1.068-1.068h2.989
		c0.589,0.002,1.067,0.479,1.067,1.068v0.427c0,0.354,0.287,0.641,0.641,0.641c0.354,0,0.641-0.287,0.641-0.641v-0.427
		C4656.188-229.114,4655.137-230.165,4653.839-230.166z"/>
	<path id="Path_174" fill="#FFFFFF" d="M4663.021-233.156c0,1.179,0.956,2.135,2.136,2.135s2.136-0.956,2.136-2.135
		c0-1.18-0.956-2.135-2.136-2.135S4663.021-234.336,4663.021-233.156z M4665.156-234.01c0.473,0,0.854,0.382,0.854,0.854
		c0,0.471-0.382,0.854-0.854,0.854c-0.472,0-0.854-0.382-0.854-0.854C4664.302-233.628,4664.685-234.01,4665.156-234.01z"/>
	<path id="Path_175" fill="#FFFFFF" d="M4666.651-230.166h-2.99c-1.296,0.001-2.347,1.052-2.349,2.349v0.427
		c0,0.354,0.287,0.641,0.641,0.641c0.354,0,0.641-0.287,0.641-0.641v-0.427c0.002-0.589,0.479-1.066,1.067-1.068h2.99
		c0.59,0.002,1.067,0.479,1.067,1.068v0.427c0,0.354,0.287,0.641,0.641,0.641c0.354,0,0.641-0.287,0.641-0.641v-0.427
		C4669-229.114,4667.949-230.165,4666.651-230.166z"/>
</g>
</svg>
